<?xml version="1.0" standalone="no"?>
<!DOCTYPE svg PUBLIC "-//W3C//DTD SVG 20010904//EN"
 "http://www.w3.org/TR/2001/REC-SVG-20010904/DTD/svg10.dtd">
<svg version="1.0" xmlns="http://www.w3.org/2000/svg"
 width="576.000000pt" height="576.000000pt" viewBox="0 0 576.000000 576.000000"
 preserveAspectRatio="xMidYMid meet">
<metadata>
Created by potrace 1.11, written by Peter Selinger 2001-2013
</metadata>
<g transform="translate(0.000000,576.000000) scale(0.100000,-0.100000)"
fill="#000000" stroke="none">
<path d="M1270 4966 c0 -2 7 -7 16 -10 8 -3 12 -2 9 4 -6 10 -25 14 -25 6z"/>
<path d="M3519 4953 c-13 -16 -12 -17 4 -4 16 13 21 21 13 21 -2 0 -10 -8 -17
-17z"/>
<path d="M1126 4799 c-15 -15 -21 -15 -44 -3 -29 15 -55 3 -35 -17 8 -8 13 -8
17 0 4 6 13 11 19 11 7 0 1 -9 -13 -19 -13 -11 -28 -17 -32 -15 -4 3 -8 0 -8
-5 0 -6 -9 -20 -21 -32 -11 -11 -24 -30 -29 -42 -9 -21 -9 -21 -7 3 1 14 -2
26 -8 27 -6 2 -9 -17 -7 -47 3 -32 0 -50 -7 -50 -15 0 -14 -47 0 -52 14 -5 19
-188 5 -188 -5 0 -4 -6 1 -12 6 -10 8 -286 3 -463 0 -5 1 -43 2 -83 2 -39 -1
-72 -5 -72 -5 0 -5 -5 -1 -12 10 -17 11 -431 1 -445 -5 -7 -6 -13 -1 -13 7 0
8 -515 4 -1595 0 -5 1 -113 3 -239 1 -173 -1 -233 -10 -242 -16 -16 -17 -54
-2 -54 8 0 10 -16 6 -50 -5 -41 -3 -50 9 -50 12 0 14 7 9 32 -6 32 -6 32 14
-7 12 -22 38 -51 58 -65 21 -14 43 -32 50 -40 11 -13 12 -13 13 0 0 13 1 13
10 0 5 -8 10 -10 10 -5 0 6 4 4 9 -3 11 -18 61 -23 61 -6 0 9 16 12 55 10 30
0 55 2 55 7 0 4 5 5 12 1 17 -11 108 -11 108 0 0 4 6 4 13 -1 10 -8 221 -10
252 -3 6 1 15 1 20 0 28 -6 145 -4 145 3 0 5 5 5 11 1 11 -6 91 -9 114 -4 6 1
12 1 15 0 16 -6 110 -4 110 3 0 4 6 5 13 0 17 -11 60 -11 75 0 7 6 12 6 12 0
0 -5 23 -9 50 -9 28 0 50 4 50 9 0 4 5 5 12 1 17 -11 91 -11 106 0 7 5 12 5
12 0 0 -10 202 -10 218 0 6 3 13 3 16 -2 4 -7 110 -8 141 -2 6 1 12 1 15 0 16
-6 160 -4 160 3 0 5 5 5 12 1 17 -11 108 -11 108 0 0 4 6 4 13 -1 6 -5 32 -8
57 -6 61 4 58 4 118 0 29 -2 52 0 52 6 0 6 5 6 13 0 6 -5 32 -9 57 -8 25 1 48
-2 51 -7 10 -16 47 -17 53 -2 3 9 10 13 15 9 5 -3 13 -1 16 5 5 8 14 6 30 -4
24 -16 35 -12 35 11 0 10 -6 12 -21 8 -19 -6 -20 -5 -8 8 8 8 17 13 20 11 13
-8 103 108 92 120 -3 3 1 14 11 25 18 19 18 41 1 53 -5 4 -10 71 -10 158 0
141 1 151 18 146 13 -3 15 -1 8 8 -20 24 -20 24 329 178 25 11 59 26 77 34 17
8 35 14 41 14 5 0 15 7 22 15 6 8 15 14 18 13 4 -1 30 8 57 21 28 13 72 26 98
28 29 4 46 10 44 17 -5 14 71 58 86 49 6 -4 8 0 4 10 -4 11 -2 14 8 11 7 -3
26 2 42 11 26 15 17 14 -24 -2 -10 -4 10 19 43 50 63 58 164 198 164 227 0 9
4 20 8 26 5 5 14 29 21 54 8 25 15 50 16 55 2 6 4 -18 4 -52 1 -35 -4 -65 -10
-69 -8 -4 -7 -9 2 -15 18 -11 31 -1 25 19 -12 36 -9 226 2 230 7 2 12 17 12
33 0 18 -4 28 -10 24 -12 -7 -14 8 -11 95 1 14 1 108 1 210 0 102 0 192 0 200
0 8 -1 131 -3 273 -2 229 0 260 14 273 17 15 15 54 -3 54 -6 0 -8 70 -6 184 3
181 3 184 -17 173 -13 -7 -16 -12 -7 -15 9 -3 12 -34 11 -115 l-1 -112 -17 55
c-17 54 -43 111 -72 159 -59 100 -182 211 -294 265 -45 21 -41 20 -110 41
l-50 15 127 -2 c78 -2 127 1 125 7 -1 6 -9 9 -17 8 -8 -1 -86 -3 -173 -3 -133
-1 -161 1 -170 14 -11 14 -15 14 -41 1 -22 -12 -67 -15 -203 -15 -103 0 -172
4 -169 9 4 5 1 11 -6 13 -18 6 -19 288 -1 288 6 0 11 13 11 30 -1 16 -5 27
-10 24 -8 -5 -12 10 -9 35 2 7 -2 11 -6 8 -5 -3 -14 7 -21 23 -15 34 -68 87
-94 96 -10 3 -16 9 -13 13 2 5 -6 7 -20 6 -13 -2 -26 3 -29 11 -7 17 -43 18
-60 2 -9 -10 -61 -12 -202 -11 -104 2 -193 3 -199 3 -5 0 -117 -1 -248 -3
-130 -1 -237 1 -237 5 0 4 -11 4 -23 -1 -13 -5 -30 -5 -37 -1 -8 5 -21 5 -29
1 -20 -9 -548 -7 -557 2 -4 3 -14 3 -23 -1 -9 -4 -124 -6 -256 -5 -132 1 -247
3 -255 3 -8 0 -55 -1 -103 -2 -61 -2 -92 1 -99 9 -14 17 -50 13 -72 -8z m778
-848 c6 -10 20 -9 48 3 10 5 27 1 43 -10 32 -21 63 -76 46 -82 -15 -5 -14 -49
1 -54 10 -4 13 -71 13 -279 1 -151 -3 -279 -7 -286 -5 -6 -5 -13 -1 -16 13 -8
9 -1277 -3 -1285 -14 -9 -14 -45 -1 -53 15 -10 -28 -74 -60 -88 -19 -9 -29 -9
-31 -2 -5 15 -49 14 -55 -1 -3 -10 -11 -9 -33 3 -34 20 -80 82 -65 87 6 2 11
17 11 33 0 18 -4 28 -10 24 -7 -4 -10 306 -10 929 0 778 3 936 14 936 9 0 12
8 8 25 -2 14 -8 25 -13 25 -23 0 32 77 66 90 27 12 33 12 39 1z m816 0 c0 -10
12 -9 47 3 28 9 56 -6 83 -44 14 -20 19 -37 14 -48 -12 -27 -12 -52 0 -52 14
0 15 -197 2 -219 -6 -8 -5 -12 0 -8 12 7 12 -613 0 -632 -6 -8 -5 -12 0 -8 7
4 12 -951 5 -996 0 -5 -5 -6 -10 -3 -11 7 -9 -47 2 -55 9 -7 -7 -44 -27 -65
-23 -23 -60 -37 -64 -25 -2 6 -17 11 -33 11 -20 0 -28 -4 -23 -11 15 -24 -42
4 -68 33 -24 27 -26 37 -21 75 4 28 2 43 -5 43 -8 0 -11 265 -11 930 0 580 4
930 10 930 5 0 9 11 9 25 0 14 -5 25 -10 25 -16 0 16 56 46 79 28 22 54 28 54
12z m1368 -270 c5 -15 49 -14 54 1 6 18 62 -19 83 -54 10 -17 14 -33 9 -37
-14 -9 -18 -65 -5 -57 13 8 13 2 12 -154 -1 -63 -1 -119 -1 -125 5 -703 4
-759 -7 -771 -13 -12 -14 -54 -1 -54 4 0 5 -8 1 -17 -11 -33 -36 -53 -63 -53
-18 0 -29 -6 -32 -18 -6 -23 -408 -206 -423 -191 -12 12 -15 190 -3 206 5 6 5
13 1 16 -4 3 -8 291 -8 640 0 492 3 640 13 658 13 24 13 24 190 22 114 -1 178
-5 180 -12z"/>
<path d="M3595 4799 c-10 -15 1 -23 20 -15 9 3 13 10 10 16 -8 13 -22 13 -30
-1z"/>
<path d="M3690 4701 c0 -11 4 -22 9 -25 11 -7 20 14 13 32 -7 19 -22 14 -22
-7z"/>
<path d="M4606 1937 c-17 -18 -18 -20 -2 -14 10 4 24 7 32 7 8 0 14 7 14 15 0
21 -21 17 -44 -8z"/>
<path d="M4075 1120 c3 -5 8 -10 11 -10 2 0 4 5 4 10 0 6 -5 10 -11 10 -5 0
-7 -4 -4 -10z"/>
<path d="M3685 1061 c-7 -12 12 -24 25 -16 11 7 4 25 -10 25 -5 0 -11 -4 -15
-9z"/>
<path d="M1044 969 c-3 -6 -2 -15 2 -19 12 -12 38 5 30 19 -9 14 -23 14 -32 0z"/>
</g>
</svg>
